<svg xmlns="http://www.w3.org/2000/svg" xmlns:sketch="http://www.bohemiancoding.com/sketch/ns" xmlns:xlink="http://www.w3.org/1999/xlink" height="24" version="1.1" width="24"><rect id="backgroundrect" width="100%" height="100%" x="0" y="0" fill="none" stroke="none"/><title/><desc/><defs/><g class="currentLayer"><title>Layer 1</title><g fill="#431e00" fill-rule="evenodd" id="miu" stroke="none" stroke-width="1" class="selected" fill-opacity="1"><g id="Artboard-1" fill="#431e00"><g id="slice" fill="#431e00"/><path d="M12,23 C18.07513300000005,23 23,18.07513300000005 23,12 C23,5.924866999999949 18.07513300000005,1 12,1 C5.924866999999949,1 1,5.924866999999949 1,12 C1,18.07513300000005 5.924866999999949,23 12,23 zM6.7788719999999785,8 L17.22112800000002,8 L12,12.362052999999946 L6.7788719999999785,8 zM18,8.650853999999981 L18,15.295796999999993 L14.013033999999948,11.973326000000043 L18,8.650853999999981 zM17.28498300000001,16 L6.715016999999989,16 L10.761828000000037,12.61904400000003 L12,13.650853999999981 L13.238171999999963,12.61904400000003 L17.28498300000001,16 zM6,15.295796999999993 L6,8.650853999999981 L9.986966000000052,11.973326000000043 L6,15.295796999999993 z" fill="#431e00" id="circle-social-email-glyph"/></g></g></g></svg>